<svg id="Group_3" data-name="Group 3" xmlns="http://www.w3.org/2000/svg" xmlns:xlink="http://www.w3.org/1999/xlink" width="596.776" height="264.405" viewBox="0 0 596.776 264.405">
  <defs>
    <style>
      .cls-1 {
        fill: white;
      }

      .cls-2 {
        clip-path: url(#clip-path);
      }
    </style>
    <clipPath id="clip-path">
      <rect id="Rectangle_29" data-name="Rectangle 29" class="cls-1" width="596.776" height="264.404"/>
    </clipPath>
  </defs>
  <path id="Path_1" data-name="Path 1" class="cls-1" d="M19.9,115.266,6.931,192.138H50.613Zm189.986-1.907-31.283,78.4v.382H223.24Zm-7.63-44.445-8.393-49.4H149.421l-34.336,91.94L80.56,19.511H36.116L27.341,71.2l30.33,80.114,8.774-58.56,38.531,99.38h17.93l40.82-99.38,8.393,56.271L202.257,69.1Z" transform="translate(-4.747 -13.362)"/>
  <path id="Path_2" data-name="Path 2" class="cls-1" d="M882.741,57.47V19.511H783.933V192.138h44.826V124.423h49.213V86.463H828.759V57.47Z" transform="translate(-536.865 -13.362)"/>
  <g id="Group_2" data-name="Group 2">
    <g id="Group_1" data-name="Group 1" class="cls-2">
      <path id="Path_3" data-name="Path 3" class="cls-1" d="M1286.608,124.956a3.818,3.818,0,0,1-.575.575,44.757,44.757,0,0,1-32.39,13.153h-.9a45.131,45.131,0,0,1-32.39-13.153,3.8,3.8,0,0,1-.576-.575c-.083-.082-.165-.165-.165-.247a40.468,40.468,0,0,1-9.783-14.88,50.75,50.75,0,0,1-3.617-18.743v-.329a49.647,49.647,0,0,1,3.617-18.661,40.479,40.479,0,0,1,5.508-9.947,28.046,28.046,0,0,1,4.028-4.85l.247-.246a45.57,45.57,0,0,1,33.376-13.564h.411a47.042,47.042,0,0,1,18.744,3.617,47.937,47.937,0,0,1,14.715,9.947c.082.082.165.164.165.246l32.144-32.143a90.322,90.322,0,0,0-28.526-18.5A91.88,91.88,0,0,0,1256.109,0c-.987,0-1.973,0-2.877.082C1252.245,0,1251.259,0,1250.272,0a90.437,90.437,0,0,0-63.054,25.156,2.186,2.186,0,0,0-.493.411,88.731,88.731,0,0,0-19.977,28.608,86.68,86.68,0,0,0-7.481,36.419v.493a87.2,87.2,0,0,0,7.645,36.336,93.147,93.147,0,0,0,20.059,28.937l.493.493a89.391,89.391,0,0,0,62.4,25.32,20.009,20.009,0,0,0,2.219-.082h2.22a20,20,0,0,0,2.219.082,89.827,89.827,0,0,0,34.117-6.741,88.478,88.478,0,0,0,28.279-18.579l-32.143-32.143c0,.082-.082.165-.165.247" transform="translate(-793.908 0)"/>
      <path id="Path_4" data-name="Path 4" class="cls-1" d="M38.627,660.256c-3.243-2.956-7.917-4.674-12.874-6.392-4.006-1.428-6.1-2.194-7.63-3.621a5.356,5.356,0,0,1-2-4.293c0-3.243,2.1-7.441,8.774-7.441a12.436,12.436,0,0,1,10.4,5.437l6.483-8.488a24.46,24.46,0,0,0-18.024-7.438c-14.116,0-20.41,9.344-20.41,18.692,0,6.486,2.956,10.013,5.055,11.825,3.243,2.862,7.249,4.387,10.586,5.531,3.624,1.242,7.438,2.48,9.824,4.674a7.391,7.391,0,0,1,2.48,5.723c0,5.339-4.2,8.774-9.824,8.774a14.916,14.916,0,0,1-13.354-8.487L0,682.478C3.338,687.341,10.205,694.5,21.935,694.5c13.161,0,22.128-8.49,22.128-20.889,0-6.483-2.575-10.776-5.437-13.35" transform="translate(0 -430.091)"/>
      <path id="Path_5" data-name="Path 5" class="cls-1" d="M279.92,632.561v10.681h14.305v52.932h12.4V643.242h14.305V632.561Z" transform="translate(-191.699 -433.2)"/>
      <path id="Path_6" data-name="Path 6" class="cls-1" d="M603.4,632.561v39.96c0,4.863-1.62,7.819-3.051,9.442a13.843,13.843,0,0,1-20.221,0c-1.431-1.623-3.051-4.579-3.051-9.442v-39.96h-12.4v38.91c0,6.01.955,12.112,4.769,16.978,4.579,6.007,12.591,9.156,20.791,9.156s16.212-3.148,20.791-9.156c3.813-4.866,4.769-10.968,4.769-16.978v-38.91Z" transform="translate(-386.713 -433.2)"/>
      <path id="Path_7" data-name="Path 7" class="cls-1" d="M942.947,638.76c-7.056-5.248-14.781-6.2-23.653-6.2H902.7v63.613h16.4c8.868,0,15.831-.86,23.268-6.1,8.4-5.913,12.783-15.068,12.783-25.655s-4.485-19.84-12.209-25.654m-8.487,42.535c-5.531,4.006-12.4,4.2-15.547,4.2H915.1V643.242h3.813c4.2,0,10.492.382,15.642,4.195,5.055,3.817,7.819,10.3,7.819,16.978,0,6.77-2.858,13.256-7.914,16.88" transform="translate(-618.201 -433.2)"/>
      <rect id="Rectangle_28" data-name="Rectangle 28" class="cls-1" width="12.399" height="63.613" transform="translate(389.313 199.361)"/>
      <path id="Path_8" data-name="Path 8" class="cls-1" d="M1504,643.543l-9.474,9.474a25.1,25.1,0,0,1,1.353,8.289c0,12.875-8.774,21.936-21.173,21.936s-21.173-9.061-21.173-21.936,8.774-22.033,21.173-22.033a21.815,21.815,0,0,1,10.148,2.383l8.665-8.664a35.943,35.943,0,0,0-18.813-4.97c-20.029,0-33.953,13.924-33.953,33.284s13.924,33.19,33.953,33.19,33.953-13.83,33.953-33.19A34.477,34.477,0,0,0,1504,643.543" transform="translate(-986.677 -430.091)"/>
    </g>
  </g>
</svg>
