<?xml version="1.0" encoding="UTF-8"?>
<svg xmlns="http://www.w3.org/2000/svg" version="1.1" viewBox="0 0 800 800">
  <defs>
    <style>
      .cls-1 {
        fill: none;
        stroke: #fcfcfc;
        stroke-linecap: round;
        stroke-linejoin: round;
        stroke-width: 66.7px;
      }
    </style>
  </defs>
  <!-- Generator: Adobe Illustrator 28.6.0, SVG Export Plug-In . SVG Version: 1.2.0 Build 709)  -->
  <g>
    <g id="Layer_1">
      <path class="cls-1" d="M700,266.7l-118.7,65.9c-66.2,36.8-99.3,55.1-134.3,62.4-31,6.4-63,6.4-94,0-35-7.2-68.1-25.6-134.3-62.4l-118.7-65.9M206.7,633.3h386.7c37.3,0,56,0,70.3-7.3,12.5-6.4,22.7-16.6,29.1-29.1,7.3-14.3,7.3-32.9,7.3-70.3v-253.3c0-37.3,0-56-7.3-70.3-6.4-12.5-16.6-22.7-29.1-29.1-14.3-7.3-32.9-7.3-70.3-7.3H206.7c-37.3,0-56,0-70.3,7.3-12.5,6.4-22.7,16.6-29.1,29.1-7.3,14.3-7.3,32.9-7.3,70.3v253.3c0,37.3,0,56,7.3,70.3,6.4,12.5,16.6,22.7,29.1,29.1,14.3,7.3,32.9,7.3,70.3,7.3Z"/>
    </g>
  </g>
</svg>