<?xml version="1.0" encoding="UTF-8"?>
<svg xmlns="http://www.w3.org/2000/svg" version="1.1" viewBox="0 0 800 800">
  <defs>
    <style>
      .cls-1 {
        fill: none;
        stroke: #fff;
        stroke-linecap: round;
        stroke-linejoin: round;
        stroke-width: 66.7px;
      }
    </style>
  </defs>
  <!-- Generator: Adobe Illustrator 28.6.0, SVG Export Plug-In . SVG Version: 1.2.0 Build 709)  -->
  <g>
    <g id="Layer_1">
      <g id="Layer_1-2" data-name="Layer_1">
        <path class="cls-1" d="M100,183.3c0,285.3,231.5,527.1,516.7,516.7,38.3-1.4,25.6-.5,38.3-1.4,14.5-1.1,21.8-1.6,28.4-5.4,5.5-3.1,10.6-8.7,13.4-14.4,3.3-6.9,3.3-14.9,3.3-30.9v-93.9c0-13.5,0-20.2-2.2-26-2-5.1-5.1-9.6-9.3-13.2-4.7-4.1-11-6.4-23.6-11l-106.9-38.9c-14.7-5.4-22.1-8-29.1-7.6-6.2.4-12.1,2.5-17.1,6.1-5.7,4-9.7,10.8-17.8,24.2l-27.4,45.6c-88.3-40-159.9-111.7-200-200l45.6-27.4c13.4-8.1,20.1-12.1,24.2-17.8,3.6-5,5.7-11,6.1-17.1.5-7-2.2-14.3-7.6-29.1l-38.9-106.9c-4.6-12.6-6.9-19-11-23.6-3.6-4.1-8.1-7.3-13.2-9.3-5.8-2.2-12.5-2.2-26-2.2h-93.9c-16,0-24,0-30.9,3.3-5.7,2.7-11.3,7.9-14.4,13.4-3.8,6.6-4.3,13.9-5.4,28.4-.9,12.6-1.4,25.4-1.4,38.3h0Z"/>
      </g>
    </g>
  </g>
</svg>