<svg xmlns="http://www.w3.org/2000/svg" xmlns:xlink="http://www.w3.org/1999/xlink" width="407" height="163" viewBox="0 0 407 163">
  <defs>
    <style>
      .cls-1 {
        fill: #fff;
      }

      .cls-2 {
        clip-path: url(#clip-path);
      }
    </style>
    <clipPath id="clip-path">
      <rect id="Rectangle_9" data-name="Rectangle 9" class="cls-1" width="407" height="163" transform="translate(553 1168)"/>
    </clipPath>
  </defs>
  <g id="Mask_Group_5" data-name="Mask Group 5" class="cls-2" transform="translate(-553 -1168)">
    <path id="microphone-round-svgrepo-com" class="cls-1" d="M169,98.65a81.5,81.5,0,1,1-81.5-81.5A81.5,81.5,0,0,1,169,98.65Zm-43.72-11.736a4.077,4.077,0,0,0-8.143,0V96.4a29.864,29.864,0,0,1-8.647,21.093,28.834,28.834,0,0,1-41.373,0A29.874,29.874,0,0,1,58.472,96.4V86.9a4.077,4.077,0,0,0-8.143,0V96.4a37.986,37.986,0,0,0,10.984,26.817,37.018,37.018,0,0,0,22.421,10.953v13.64H67.047a4.077,4.077,0,1,0,0,8.143h41.527a4.077,4.077,0,0,0,0-8.143h-16.7v-13.64A37.018,37.018,0,0,0,114.3,123.213,37.986,37.986,0,0,0,125.282,96.4ZM66.82,96.406a20.331,20.331,0,0,0,1.647,8.112,20.939,20.939,0,0,0,11.19,11.169,20.589,20.589,0,0,0,8.194,1.647A20.259,20.259,0,0,0,96,115.687a21.536,21.536,0,0,0,6.64-4.488,20.939,20.939,0,0,0,6.063-14.8l.082-32.5a21.087,21.087,0,0,0-12.7-19.467,20.269,20.269,0,0,0-8.153-1.647A20.547,20.547,0,0,0,79.74,44.43,21.247,21.247,0,0,0,68.478,55.692a20.558,20.558,0,0,0-1.657,8.2Z" transform="translate(668.998 1150.85)"/>
  </g>
</svg>
