<?xml version="1.0" encoding="utf-8"?>

<!-- Uploaded to: SVG Repo, www.svgrepo.com, Generator: SVG Repo Mixer Tools -->
<svg version="1.1" id="Icons" xmlns="http://www.w3.org/2000/svg" xmlns:xlink="http://www.w3.org/1999/xlink" 
	 viewBox="0 0 32 32" xml:space="preserve">
<style type="text/css">
	.st0{fill:none;stroke:#000000;stroke-width:2;stroke-linejoin:round;stroke-miterlimit:10;}
	.st1{fill:none;stroke:#000000;stroke-width:2;stroke-linecap:round;stroke-linejoin:round;stroke-miterlimit:10;}
</style>
<path class="st1" d="M12.8,21.8L12.8,21.8c-1.7-1.4-2.3-3.8-1.5-5.9l4.1-10.7C16.3,3,19,2.3,20.8,3.8l0,0c1.4,1.2,1.6,3.3,0.5,4.7
	l-1.1,1.5l1.4,6.2c0.4,1.9-0.2,3.9-1.7,5.1l-0.4,0.4C17.5,23.4,14.7,23.4,12.8,21.8z"/>
<line class="st1" x1="14" y1="29" x2="14" y2="22.5"/>
<line class="st1" x1="19" y1="22.1" x2="19" y2="29"/>
<line class="st1" x1="9.6" y1="14.9" x2="11.4" y2="15.7"/>
<line class="st1" x1="10.6" y1="11.9" x2="12.5" y2="12.8"/>
<line class="st1" x1="11.6" y1="8.9" x2="13.6" y2="9.8"/>
<line class="st1" x1="12.6" y1="5.9" x2="14.8" y2="6.9"/>
</svg>