<?xml version="1.0" encoding="UTF-8"?>
<svg xmlns="http://www.w3.org/2000/svg" version="1.1" viewBox="0 0 800 800">
  <defs>
    <style>
      .cls-1, .cls-2 {
        fill: none;
        stroke: #000;
        stroke-miterlimit: 133.3;
        stroke-width: 50px;
      }

      .cls-2 {
        stroke-linecap: round;
      }
    </style>
  </defs>
  <!-- Generator: Adobe Illustrator 28.6.0, SVG Export Plug-In . SVG Version: 1.2.0 Build 709)  -->
  <g>
    <g id="Layer_1">
      <path class="cls-1" d="M233.3,266.7c0-92,74.6-166.7,166.7-166.7s166.7,74.6,166.7,166.7v100c0,92-74.6,166.7-166.7,166.7s-166.7-74.6-166.7-166.7v-100Z"/>
      <path class="cls-2" d="M366.7,266.7h66.7"/>
      <path class="cls-2" d="M333.3,366.7h133.3"/>
      <path d="M691.7,333.3c0-13.8-11.2-25-25-25s-25,11.2-25,25h50ZM158.3,333.3c0-13.8-11.2-25-25-25s-25,11.2-25,25h50ZM517.1,578.1c-12.1,6.7-16.4,21.9-9.7,34,6.7,12.1,21.9,16.4,34,9.7l-24.3-43.7ZM641.7,333.3v33.3h50v-33.3h-50ZM158.3,366.7v-33.3h-50v33.3h50ZM400,608.3c-133.5,0-241.7-108.2-241.7-241.7h-50c0,161.1,130.6,291.7,291.7,291.7v-50ZM641.7,366.7c0,91-50.2,170.2-124.6,211.5l24.3,43.7c89.6-49.7,150.3-145.3,150.3-255.2h-50Z"/>
      <path class="cls-2" d="M400,633.3v100"/>
    </g>
  </g>
</svg>