<?xml version="1.0" encoding="UTF-8"?>
<svg xmlns="http://www.w3.org/2000/svg" xmlns:xlink="http://www.w3.org/1999/xlink" version="1.1" viewBox="0 0 207 207">
  <defs>
    <style>
      .cls-1 {
        fill: none;
      }

      .cls-2 {
        clip-path: url(#clippath);
      }
    </style>
    <clipPath id="clippath">
      <rect class="cls-1" y="0" width="207" height="207"/>
    </clipPath>
  </defs>
  <!-- Generator: Adobe Illustrator 28.6.0, SVG Export Plug-In . SVG Version: 1.2.0 Build 709)  -->
  <g>
    <g id="Layer_1">
      <g class="cls-2">
        <g id="Mask_Group_13">
          <path id="writing-svgrepo-com" d="M151.4,2.8L46,108.1c-1,1-1.8,2.3-2.3,3.7l-15.1,45.2c-1.6,4.9,1,10.3,6,11.9,1,.3,2,.5,3,.5,1,0,2-.2,3-.5l45.2-15.1c1.4-.5,2.6-1.2,3.7-2.3l105.4-105.4c3.7-3.7,3.7-9.6,0-13.3l-30.1-30.1c-3.7-3.7-9.6-3.7-13.3,0h0ZM77.9,143.4l-38.2,14.5,12.3-36.5L158.4,13.4l26.4,25.9-106.8,104.1ZM18.8,192.9h160c5.2,0,9.4,4.2,9.4,9.4s-4.2,4.7-9.4,4.7H18.8c-5.2,0-9.4.5-9.4-4.7,0-5.2,4.2-9.4,9.4-9.4h0Z"/>
        </g>
      </g>
    </g>
  </g>
</svg>